<svg version="1.2" xmlns="http://www.w3.org/2000/svg" viewBox="0 0 700 700" width="700" height="700"><style>.a{fill:#183251}.b{fill:#2ec9ff}</style><filter id="f0"><feFlood flood-color="#000000" flood-opacity="1" /><feBlend mode="normal" in2="SourceGraphic"/><feComposite in2="SourceAlpha" operator="in" /></filter><g filter="url(#f0)"><path class="a" d="m699.6 394.8l0.4 133.5c0.2 60.3-48.7 109.3-109.1 109.3l-481.7-0.4c-60.3-0.1-109.2-49-109.2-109.3v-356.3c0-60.5 49.1-109.6 109.6-109.6h294.4c13.7 0 25.5 10.6 26.2 24.3 0.6 14.6-11 26.7-25.5 26.7h-296.1c-31.8 0-57.6 25.8-57.6 57.6v358.5c0 31.8 25.8 57.6 57.6 57.6h482.4c31.8 0 57.6-25.8 57.6-57.6v-133.6c0-13.8 10.5-25.6 24.2-26.2 14.7-0.7 26.8 11 26.8 25.5z"/><path class="a" d="m128.2 254.5c21.9-12.7 50-5.2 62.7 16.8l113 197.1c12.6 21.9 5.1 50-16.8 62.7-22 12.7-50.1 5.2-62.8-16.8l-112.9-197.1c-12.7-22-5.2-50.1 16.8-62.7z"/><path class="b" d="m641.6 219.3l-170.5 295c-8.5 14.7-24 23-39.8 23q-0.8 0-1.5-0.1-0.7 0.1-1.5 0.1c-15.7 0-31.1-8.2-39.5-22.9l-85.6-150.1c-12.6-21.8-5.1-49.7 16.7-62.3 21.8-12.6 49.7-5.1 62.4 16.7l28.4 50c8.5 14.8 29.9 14.9 38.4 0.1l113-195.4c12.7-22 40.7-29.5 62.7-16.8 21.9 12.7 29.5 40.7 16.8 62.7z"/></g></svg>