<svg version="1.2" xmlns="http://www.w3.org/2000/svg" viewBox="0 0 754 754" width="754" height="754">
	<title>WeekToDo-Logo-Color-svg</title>
	<style>
		.s0 { fill: #183251 } 
		.s1 { fill: #2ec9ff } 
	</style>
	<g id="Folder 1">
		<path id="Layer" class="s0" d="m753.5 425.4l0.5 143.8c0.2 65-52.5 117.8-117.5 117.8l-518.9-0.5c-65 0-117.6-52.7-117.6-117.7v-383.8c0-65.2 52.8-118 118-118h317.1c14.8 0 27.5 11.4 28.2 26.1 0.8 15.8-11.8 28.8-27.4 28.8h-318.9c-34.3 0-62 27.8-62 62.1v386.1c0 34.3 27.7 62 62 62h519.6c34.2 0 62-27.7 62-62v-143.9c0-14.8 11.4-27.5 26.1-28.2 15.8-0.8 28.8 11.8 28.8 27.4z"/>
		<path id="Layer" class="s0" d="m138.1 274.3c23.6-13.7 53.9-5.5 67.5 18.1l121.7 212.3c13.7 23.7 5.5 53.9-18.1 67.6-23.7 13.6-53.9 5.5-67.6-18.1l-121.6-212.3c-13.7-23.7-5.6-53.9 18.1-67.6z"/>
		<path id="Layer" class="s1" d="m691.1 236.4l-183.7 317.8c-9.2 15.9-25.8 24.7-42.9 24.7q-0.8 0-1.5 0h-0.1q-0.7 0-1.5 0c-17 0-33.5-8.8-42.6-24.6l-92.2-161.7c-13.5-23.5-5.5-53.5 18-67.1 23.5-13.5 53.6-5.5 67.1 18l30.7 53.8c9.1 16 32.2 16.1 41.4 0.1l121.6-210.4c13.7-23.7 43.9-31.8 67.6-18.1 23.6 13.6 31.7 43.9 18.1 67.5z"/>
	</g>
</svg>