<svg version="1.2" xmlns="http://www.w3.org/2000/svg" viewBox="0 0 3000 3000" width="3000" height="3000">
	<title>logo-color-svg</title>
	<style>
		.s0 { fill: #ffffff } 
	</style>
	<path id="Layer" class="s0" d="m2684.1 1652.4l1.4 452.2c0.7 204.5-165 370.6-369.5 370.4l-1632.1-1.4c-204.3-0.3-369.9-166-369.9-370.3v-1207.1c0-205 166.2-371.2 371.2-371.2h997.4c46.5 0 86.6 35.8 88.7 82.2 2.4 49.6-37.2 90.6-86.3 90.6h-1003.1c-107.7 0-195 87.3-195 195v1214.7c0 107.7 87.3 195 195 195h1634.3c107.7 0 195.1-87.3 195.1-195v-452.7c0-46.5 35.7-86.6 82.2-88.8 49.6-2.3 90.6 37.2 90.6 86.4z"/>
	<path id="Layer" class="s0" d="m748.3 1177c74.4-42.9 169.5-17.5 212.5 56.9l382.7 667.9c42.9 74.4 17.4 169.5-57 212.4-74.4 43-169.5 17.5-212.4-56.9l-382.7-667.8c-43-74.4-17.5-169.5 56.9-212.5z"/>
	<path id="Layer" class="s0" d="m2487.7 1057.9l-577.8 999.4c-28.8 49.9-81 77.8-134.8 77.8-1.6 0-3.3 0-4.9-0.1h-0.1c-1.6 0.1-3.3 0.1-5 0.1-53.3 0-105.3-27.7-133.9-77.3l-289.9-508.6c-42.6-73.9-17.3-168.4 56.6-211.1 73.9-42.7 168.4-17.3 211.2 56.6l96.4 169.2c28.7 50.4 101.2 50.6 130.1 0.4l382.7-661.9c43-74.4 138.1-99.9 212.4-56.9 74.4 42.9 99.9 138 57 212.4z"/>
</svg>