<?xml version="1.0" encoding="UTF-8"?>
<svg id="Capa_1" data-name="Capa 1" xmlns="http://www.w3.org/2000/svg" viewBox="0 0 3000 3000">
  <defs>
    <style>
      .cls-1 {
        fill: #2ec9ff;
      }

      .cls-2 {
        fill: #183251;
      }
    </style>
  </defs>
  <path class="cls-2" d="M2684.07,1652.36l1.46,452.24c.66,204.5-165.03,370.58-369.53,370.4l-1632.06-1.44c-204.35-.22-369.9-165.94-369.9-370.3V896.19c0-205,166.19-371.19,371.19-371.19h997.36c46.53,0,86.56,35.76,88.75,82.23,2.34,49.62-37.2,90.58-86.31,90.58H681.9c-107.71,0-195.03,87.32-195.03,195.03v1214.63c0,107.71,87.32,195.03,195.03,195.03h1634.33c107.71,0,195.03-87.32,195.03-195.03v-452.68c0-46.53,35.76-86.56,82.23-88.75,49.62-2.34,90.58,37.2,90.58,86.31Z"/>
  <path class="cls-2" d="M748.3,1177.01h0c74.39-42.95,169.51-17.46,212.46,56.93l382.7,667.84c42.95,74.39,17.46,169.51-56.93,212.46h0c-74.39,42.95-169.51,17.46-212.46-56.93l-382.7-667.84c-42.95-74.39-17.46-169.51,56.93-212.46Z"/>
  <path class="cls-1" d="M2487.67,1057.94l-577.75,999.35c-28.8,49.93-81.07,77.82-134.83,77.82-1.63,0-3.32,0-4.94-.07h-.07c-1.63,.07-3.32,.07-4.94,.07-53.37,0-105.32-27.69-133.92-77.3l-289.88-508.58c-42.65-73.92-17.36-168.44,56.56-211.09,73.92-42.71,168.44-17.36,211.16,56.56l96.44,169.23c28.68,50.33,101.15,50.55,130.14,.4l382.64-661.96c42.97-74.37,138.08-99.86,212.46-56.88,74.37,42.91,99.86,138.02,56.95,212.46Z"/>
</svg>