<svg version="1.2" xmlns="http://www.w3.org/2000/svg" viewBox="0 0 3000 612" width="3000" height="612"><style>.a{fill:#183251}.b{fill:#2ec9ff}</style><path class="a" d="m1140.7 164.6h44.2l-81.5 294.4h-55.1l-68.1-234.6-64.3 234.7h-55.4l-84.6-294.4h44.2l69.4 246 69.7-246.1h42.8l72 246.1c0 0 66.7-246.1 66.7-246.1z"/><path fill-rule="evenodd" class="a" d="m1217.5 371.5q3.8 26.5 23.1 42.1 19.4 15.5 46.7 15.5 20.6 0 37.4-9.6 16.8-9.7 25.2-26.1l36.6 14.3q-13.5 26.9-40.2 42.9-26.6 16-59 16-47.1 0-79.4-32.2-32.4-32.2-32.4-80.9 0-48.8 31.5-81 31.5-32.2 77.7-32.2 46.3 0 78.6 31.7 32.4 31.8 32.4 79.3 0 8.4-2.5 20.2c0 0-175.7 0-175.7 0zm137.4-36.2q-2.9-26.5-22.5-42-19.5-15.6-46.8-15.6c-18.2 0-32.8 5.2-45.4 15.6q-18.9 15.6-22.7 42.1c0 0 137.4-0.1 137.4-0.1z"/><path fill-rule="evenodd" class="a" d="m1467.7 371.5q3.8 26.5 23.1 42 19.4 15.6 46.7 15.6 20.6 0 37.4-9.7 16.8-9.7 25.2-26.1l36.6 14.3q-13.5 26.9-40.2 42.9-26.7 16-59 16-47.1 0-79.4-32.1-32.4-32.2-32.4-81 0-48.8 31.5-81 31.5-32.1 77.7-32.1 46.2-0.1 78.6 31.7 32.4 31.7 32.4 79.3 0 8.4-2.5 20.1c0 0-175.7 0.1-175.7 0.1zm137.4-36.2q-2.9-26.5-22.5-42.1-19.5-15.5-46.8-15.5c-18.2 0-32.8 5.2-45.4 15.5q-18.9 15.6-22.7 42.1c0 0 137.4 0 137.4 0z"/><path class="a" d="m1678.1 458.9l-0.1-293.7h40v168.4h11.4l80.2-85h51.7l-97.1 105.2 97.1 105.1h-51.6l-80.3-84.1h-11.4v84.1c0 0-39.9 0-39.9 0z"/><path class="a" d="m2063.4 164.4v39.1l-94.5 0.1v255.3h-39.9l-0.1-255.3h-94.5v-39.1z"/><path fill-rule="evenodd" class="a" d="m2058.7 434.4q-33.5-31.9-33.5-81.1 0-49.2 33.4-81.2 33.4-32 81.3-32 48 0 81.4 32 33.4 31.9 33.4 81.1 0 49.2-33.4 81.2-33.4 32-81.3 32-47.9 0-81.3-32zm28.1-135q-21.6 21.1-21.6 53.9 0 32.8 21.6 53.8 21.7 21 53.2 21 31.5 0 53.1-21 21.7-21.1 21.7-53.9 0-32.8-21.7-53.8-21.6-21-53.2-21-31.5 0-53.1 21z"/><path fill-rule="evenodd" class="a" d="m2396 458.8h-110.9l-0.1-294.4h111q39.9 0 72.9 18.4 33 18.5 52.8 52.4 19.7 33.9 19.7 75.9c0 28.1-6.5 53.8-19.7 76.4q-19.8 33.8-52.7 52.5-33 18.8-73 18.8zm-4.2-255.8l-66.8 0.1v217h66.8q45.8 0 77.6-30.8 31.7-30.7 31.7-78.2 0-47.5-31.8-77.8-31.7-30.3-77.5-30.3z"/><path fill-rule="evenodd" class="a" d="m2602.8 434.3q-33.4-31.9-33.4-81.1 0-49.2 33.4-81.2 33.4-32 81.3-32 47.9 0 81.3 32 33.4 31.9 33.4 81.1 0.1 49.2-33.3 81.2-33.5 32-81.4 32-47.9 0-81.3-32zm25.2-135q-21.6 21-21.6 53.8 0 32.8 21.6 53.9 21.7 21 53.2 21 31.5 0 53.1-21 21.7-21.1 21.7-53.9 0-32.8-21.7-53.8-21.6-21-53.2-21-31.5 0-53.1 21z"/><path class="a" d="m712.9 355.9l0.3 104.4c0.2 47.3-38 85.6-85.2 85.6l-376.6-0.3c-47.2 0-85.4-38.3-85.4-85.5l-0.1-278.7c0-47.4 38.4-85.8 85.7-85.8h230.1c10.8 0 20 8.2 20.5 19 0.5 11.4-8.6 20.9-19.9 20.9h-231.5c-24.9 0.1-45 20.2-45 45.1l0.1 280.5c0 24.9 20.1 45.1 45 45h377.1c24.9 0 45-20.2 45-45.1v-104.5c0-10.8 8.3-20 19-20.5 11.4-0.6 20.9 8.6 20.9 19.9z"/><path class="a" d="m266.1 246.2c17.2-9.9 39.2-4 49.1 13.1l88.3 154.3c9.9 17.1 4.1 39.1-13.1 49-17.2 10-39.1 4.1-49-13.1l-88.4-154.2c-9.9-17.2-4-39.2 13.1-49.1z"/><path class="b" d="m667.5 218.6l-133.3 230.8c-6.6 11.6-18.7 18-31.1 18q-0.5 0-1.1 0-0.6 0-1.2 0c-12.3 0-24.3-6.4-30.9-17.8l-66.9-117.5c-9.8-17-4-38.9 13-48.7 17.1-9.9 38.9-4 48.8 13l22.2 39.1c6.7 11.6 23.4 11.7 30.1 0.1l88.2-152.9c10-17.2 31.9-23.1 49.1-13.1 17.1 9.9 23 31.8 13.1 49z"/></svg>