<svg version="1.2" xmlns="http://www.w3.org/2000/svg" viewBox="0 0 3000 616" width="3000" height="616"><style>.a{fill:#fff}</style><path class="a" d="m1140.9 156.4h44.1l-81.5 294.2h-55.1l-68.1-234.5-64.3 234.5h-55.4l-84.5-294.2h44.1l69.4 245.9 69.7-245.9h42.9l71.9 245.9c0 0 66.8-245.9 66.8-245.9z"/><path fill-rule="evenodd" class="a" d="m1217.6 363.2q3.8 26.5 23.2 42 19.3 15.6 46.6 15.6 20.6 0 37.4-9.7 16.8-9.7 25.2-26.1l36.6 14.3q-13.5 26.9-40.2 42.9-26.7 16-59 16-47.1 0-79.4-32.2-32.4-32.1-32.4-80.9 0-48.7 31.5-80.9 31.5-32.1 77.8-32.1 46.2 0 78.6 31.7 32.3 31.7 32.3 79.2 0 8.4-2.5 20.2c0 0-175.7 0-175.7 0zm137.5-36.2q-3-26.4-22.5-42-19.6-15.5-46.9-15.5c-18.2 0-32.8 5.2-45.4 15.5q-18.9 15.6-22.7 42c0 0 137.5 0 137.5 0z"/><path fill-rule="evenodd" class="a" d="m1467.8 363.2q3.8 26.5 23.1 42 19.4 15.6 46.7 15.6 20.6 0 37.4-9.7 16.8-9.7 25.2-26.1l36.6 14.3q-13.5 26.9-40.2 42.9-26.7 16-59 16-47.1 0-79.5-32.2-32.3-32.1-32.3-80.9 0-48.7 31.5-80.9 31.5-32.1 77.8-32.1 46.2 0 78.5 31.7 32.4 31.7 32.4 79.2 0 8.4-2.5 20.2c0 0-175.7 0-175.7 0zm137.5-36.2q-3-26.4-22.5-42-19.6-15.5-46.9-15.5c-18.2 0-32.8 5.2-45.4 15.5q-18.9 15.6-22.7 42c0 0 137.4 0 137.5 0z"/><path class="a" d="m1678.2 450.6v-293.5h39.9v168.3h11.4l80.2-84.9h51.7l-97 105 97 105.1h-51.7l-80.2-84h-11.4v84c0 0-39.9 0-39.9 0z"/><path class="a" d="m2063.6 156.4v39.1h-94.6v255.1h-39.9v-255.1h-94.6v-39.1z"/><path fill-rule="evenodd" class="a" d="m2058.8 426.2q-33.5-31.9-33.5-81.1 0.1-49.2 33.5-81.1 33.4-31.9 81.3-31.9 47.9 0 81.3 31.9 33.4 32 33.4 81.1 0 49.2-33.4 81.1-33.4 32-81.3 32-47.9 0-81.3-32zm28.1-134.9q-21.6 21-21.6 53.8 0 32.8 21.6 53.8 21.7 21 53.2 21 31.5 0 53.1-21 21.7-21 21.7-53.8 0-32.8-21.7-53.8-21.6-21-53.1-21-31.6 0-53.2 21z"/><path fill-rule="evenodd" class="a" d="m2396.1 450.6h-110.9v-294.2h110.9q40 0 73 18.5 32.9 18.5 52.7 52.3 19.8 33.9 19.8 75.9c0 28-6.6 53.7-19.8 76.3q-19.8 33.8-52.7 52.5-33 18.7-73 18.7zm-4.2-255.5h-66.8v216.8h66.8q45.8 0 77.6-30.6 31.7-30.7 31.7-78.2 0-47.5-31.7-77.8-31.8-30.2-77.6-30.2z"/><path fill-rule="evenodd" class="a" d="m2602.9 426.2q-33.4-31.9-33.4-81.1 0-49.2 33.4-81.1 33.4-31.9 81.3-31.9 47.9 0 81.4 31.9 33.4 32 33.4 81.1 0 49.2-33.4 81.1-33.5 32-81.4 32-47.9 0-81.3-32zm25.2-134.9q-21.6 21-21.6 53.8 0 32.8 21.6 53.8 21.7 21 53.2 21 31.5 0 53.1-21 21.7-21 21.7-53.8 0-32.8-21.7-53.8-21.6-21-53.1-21-31.6 0-53.2 21z"/><path class="a" d="m713 347.5l0.3 104.3c0.2 47.2-38 85.5-85.2 85.5l-376.7-0.3c-47.1-0.1-85.3-38.3-85.3-85.5v-278.5c0-47.3 38.3-85.7 85.6-85.7h230.2c10.7 0 20 8.3 20.5 19 0.5 11.4-8.6 20.9-19.9 20.9h-231.5c-24.9 0-45 20.1-45 45v280.3c0 24.9 20.1 45 45 45h377.1c24.9 0 45-20.1 45-45v-104.5c0-10.7 8.3-19.9 19-20.4 11.5-0.6 20.9 8.5 20.9 19.9z"/><path class="a" d="m266.3 237.8c17.1-9.9 39.1-4.1 49 13.1l88.3 154.1c9.9 17.2 4.1 39.2-13.1 49.1-17.2 9.9-39.1 4-49-13.2l-88.4-154.1c-9.9-17.2-4-39.1 13.2-49z"/><path class="a" d="m667.7 210.3l-133.4 230.6c-6.6 11.5-18.7 18-31.1 18q-0.6 0-1.1-0.1-0.6 0.1-1.2 0.1c-12.3 0-24.3-6.4-30.9-17.9l-66.9-117.3c-9.8-17.1-4-38.9 13.1-48.7 17-9.9 38.8-4 48.7 13l22.3 39.1c6.6 11.6 23.3 11.6 30 0l88.3-152.7c9.9-17.2 31.9-23.1 49-13.1 17.2 9.9 23.1 31.8 13.2 49z"/></svg>